<svg>
    <defs>
        <g id="scrum" style="transform: scale(0.25);">
            <path d="M94.5,76.1l-14.7-8.6c-0.3-0.2-0.7-0.2-1,0c-0.3,0.2-0.5,0.5-0.5,0.8l0,6.6H63.2c6.9-4.4,11.4-12,11.4-20.7  c0-13.5-11-24.5-24.5-24.5c-7.1,0-13.4,3-17.9,7.8l0,0c-2.8,1.7-6.4,1.9-9.3,0.3c-2.2-1.2-3.8-3.1-4.6-5.5s-0.5-4.9,0.7-7.1  c1.2-2.2,3.1-3.8,5.5-4.6c1.2-0.4,2.5-0.5,3.7-0.4l-0.9,1.8c-0.2,0.3-0.1,0.7,0.1,1c0.2,0.3,0.5,0.4,0.8,0.4c0,0,0,0,0.1,0l8.5-0.5  c0.3,0,0.7-0.2,0.8-0.5c0.2-0.3,0.1-0.7-0.1-1l-4.7-7c-0.2-0.3-0.5-0.5-0.9-0.4c-0.3,0-0.7,0.2-0.8,0.5L30,16.5  c-2.2-0.5-4.5-0.4-6.7,0.3c-3.4,1-6.2,3.3-7.8,6.5c-3.4,6.5-0.9,14.5,5.5,17.9c1.9,1,4.1,1.5,6.2,1.5c0.4,0,0.8,0,1.2-0.1  c-0.9,1.7-1.6,3.5-2.1,5.5l-7,0.3c-0.3,0-0.7,0.2-0.8,0.5c-0.2,0.3-0.2,0.7,0,1l8.9,14.3c0.2,0.3,0.5,0.5,0.8,0.5c0,0,0,0,0,0  c0.3,0,0.7-0.2,0.8-0.5l8-15c0.2-0.3,0.2-0.7,0-1c-0.2-0.3-0.5-0.5-0.9-0.5l-5.8,0.2C33,39.6,40.8,33.5,50,33.5  c11.4,0,20.7,9.3,20.7,20.7c0,11.4-9.3,20.7-20.7,20.7v0.1H5v3.7h45v0.1c0.6,0,1.2,0,1.8-0.1h26.5l0,6.6c0,0.3,0.2,0.7,0.5,0.8  c0.2,0.1,0.3,0.1,0.5,0.1c0.2,0,0.3,0,0.5-0.1l14.7-8.3c0.3-0.2,0.5-0.5,0.5-0.8C95,76.6,94.8,76.2,94.5,76.1z"/>
        </g>
    </defs>
</svg>