<svg>
    <defs>
        <g id="scrum" style="transform: scale(0.25);">
            <path d="M94.5,76.1l-14.7-8.6c-0.3-0.2-0.7-0.2-1,0c-0.3,0.2-0.5,0.5-0.5,0.8l0,6.6H63.2c6.9-4.4,11.4-12,11.4-20.7  c0-13.5-11-24.5-24.5-24.5c-7.1,0-13.4,3-17.9,7.8l0,0c-2.8,1.7-6.4,1.9-9.3,0.3c-2.2-1.2-3.8-3.1-4.6-5.5s-0.5-4.9,0.7-7.1  c1.2-2.2,3.1-3.8,5.5-4.6c1.2-0.4,2.5-0.5,3.7-0.4l-0.9,1.8c-0.2,0.3-0.1,0.7,0.1,1c0.2,0.3,0.5,0.4,0.8,0.4c0,0,0,0,0.1,0l8.5-0.5  c0.3,0,0.7-0.2,0.8-0.5c0.2-0.3,0.1-0.7-0.1-1l-4.7-7c-0.2-0.3-0.5-0.5-0.9-0.4c-0.3,0-0.7,0.2-0.8,0.5L30,16.5  c-2.2-0.5-4.5-0.4-6.7,0.3c-3.4,1-6.2,3.3-7.8,6.5c-3.4,6.5-0.9,14.5,5.5,17.9c1.9,1,4.1,1.5,6.2,1.5c0.4,0,0.8,0,1.2-0.1  c-0.9,1.7-1.6,3.5-2.1,5.5l-7,0.3c-0.3,0-0.7,0.2-0.8,0.5c-0.2,0.3-0.2,0.7,0,1l8.9,14.3c0.2,0.3,0.5,0.5,0.8,0.5c0,0,0,0,0,0  c0.3,0,0.7-0.2,0.8-0.5l8-15c0.2-0.3,0.2-0.7,0-1c-0.2-0.3-0.5-0.5-0.9-0.5l-5.8,0.2C33,39.6,40.8,33.5,50,33.5  c11.4,0,20.7,9.3,20.7,20.7c0,11.4-9.3,20.7-20.7,20.7v0.1H5v3.7h45v0.1c0.6,0,1.2,0,1.8-0.1h26.5l0,6.6c0,0.3,0.2,0.7,0.5,0.8  c0.2,0.1,0.3,0.1,0.5,0.1c0.2,0,0.3,0,0.5-0.1l14.7-8.3c0.3-0.2,0.5-0.5,0.5-0.8C95,76.6,94.8,76.2,94.5,76.1z"/>
        </g>
        <g id="microsoft_project" style="transform: scale(0.5);">
            <path d="M 28.8125 0 L 0.8125 5.3125 C 0.3125 5.414063 0 5.914063 0 6.3125 L 0 43.59375 C 0 44.09375 0.3125 44.492188 0.8125 44.59375 L 28.8125 49.90625 L 29 49.90625 C 29.199219 49.90625 29.492188 49.789063 29.59375 49.6875 C 29.792969 49.488281 30 49.207031 30 48.90625 L 30 1 C 30 0.699219 29.894531 0.386719 29.59375 0.1875 C 29.394531 -0.0117188 29.113281 0 28.8125 0 Z M 32 6 L 32 13 L 40 13 L 40 23 L 44 23 L 39 28 L 34 23 L 38 23 L 38 15 L 32 15 L 32 27.5 L 36.5 32 L 32 36.5 L 32 44 L 47 44 C 48.101563 44 49 43.101563 49 42 L 49 8 C 49 6.898438 48.101563 6 47 6 Z M 9.1875 15.6875 L 15.8125 15.6875 C 20.511719 15.6875 22.90625 17.6875 22.90625 21.6875 C 22.804688 23.488281 22.210938 24.988281 20.8125 26.1875 C 19.414063 27.386719 17.605469 27.90625 15.40625 27.90625 L 13.40625 27.90625 L 13.40625 34.3125 L 9.1875 34.3125 Z M 13.3125 18.90625 L 13.3125 24.6875 L 15 24.6875 C 17.199219 24.6875 18.40625 23.710938 18.40625 21.8125 C 18.40625 19.914063 17.300781 18.90625 15 18.90625 Z "></path>
        </g>
        <g id="cmis" style="transform: scale(0.0015);" stroke="none">
            <path d="M2685 13338 c-321 -36 -628 -147 -885 -319 -269 -181 -460 -397 -596 -674 -121 -247 -164 -426 -171 -724 -6 -223 5 -351 47 -518 154 -612 642 -1090 1291 -1262 242 -64 261 -66 854 -66 593 0 612 2 854 66 353 93 678 288 902 540 175 197 395 393 583 520 349 235 698 341 1215 370 297 16 1233 6 1366 -14 406 -63 729 -199 1039 -436 521 -398 836 -1037 836 -1696 0 -639 -295 -1258 -792 -1663 -249 -203 -586 -367 -890 -433 -217 -47 -270 -51 -813 -56 -760 -7 -1036 12 -1338 91 -404 106 -759 321 -1071 647 -236 247 -274 284 -351 344 -221 172 -507 306 -780 364 -197 42 -262 46 -765 46 -419 0 -501 -2 -600 -18 -460 -72 -831 -260 -1125 -569 -221 -232 -364 -507 -437 -839 -20 -93 -22 -131 -22 -364 0 -233 2 -271 22 -365 77 -356 221 -621 471 -870 296 -295 643 -466 1076 -531 115 -17 187 -19 615 -19 279 0 522 4 570 11 320 39 608 145 871 320 110 73 152 111 379 339 140 141 293 287 340 324 337 268 660 410 1092 478 139 22 163 23 878 23 660 0 746 -2 841 -18 479 -81 891 -296 1225 -639 304 -312 494 -686 576 -1133 29 -160 31 -524 5 -680 -172 -992 -948 -1718 -1941 -1814 -140 -14 -1199 -14 -1372 -1 -161 13 -308 34 -444 66 -415 97 -795 320 -1119 657 -340 353 -416 415 -651 536 -211 108 -424 175 -658 206 -137 18 -1005 22 -1142 5 -402 -50 -775 -213 -1061 -463 -317 -277 -521 -663 -569 -1078 -19 -157 -8 -463 20 -604 74 -373 279 -723 562 -960 312 -263 694 -418 1113 -454 155 -14 825 -14 980 0 484 41 915 240 1225 563 302 315 439 437 634 567 280 186 581 295 956 345 102 14 259 18 865 24 796 8 799 8 1065 66 790 174 1482 718 1840 1448 197 402 282 765 283 1211 0 322 -40 575 -138 873 -208 631 -648 1167 -1232 1504 l-123 71 113 65 c240 139 395 258 587 451 628 630 906 1512 755 2396 -96 558 -354 1055 -759 1461 -391 390 -859 641 -1401 749 -239 48 -376 55 -1028 55 -332 0 -654 5 -717 10 -440 40 -783 155 -1104 371 -192 129 -295 221 -601 540 -209 218 -454 369 -755 468 -270 88 -402 101 -970 100 -245 -1 -481 -6 -525 -11z"/>
        </g>
        <g id="microsoft_access" style="transform: scale(1.5);">
            <path d="M16 10.012c-.034.362-.516.65-1.443.86-.928.214-2.092.32-3.494.32-.414 0-.81-.005-1.19-.017v2.188c.38.023.776.035 1.19.035 1.396-.012 2.56-.136 3.49-.375.93-.238 1.413-.538 1.447-.9v-2.11zm-4.954-1.577c-.402 0-.8-.01-1.19-.034l.018 2.23c.38.01.775.02 1.19.02 1.4-.01 2.565-.13 3.493-.37.927-.23 1.41-.53 1.443-.89V7.24c-.034.362-.518.652-1.452.87-.933.22-2.1.33-3.502.33zm0-2.748c-.402 0-.8-.012-1.19-.035v2.223c.39.023.788.035 1.19.035 1.4-.012 2.57-.135 3.502-.37.934-.236 1.418-.535 1.452-.897V4.506c-.034.362-.518.65-1.452.862-.933.212-2.1.32-3.502.32zm0-3.085c-.402 0-.8.017-1.19.052v2.464c.39.023.788.034 1.19.034 1.4-.01 2.57-.133 3.502-.366.934-.232 1.418-.533 1.452-.9-.034-.362-.518-.664-1.452-.905-.933-.24-2.1-.36-3.502-.37zm-6.73 3.472c-.022.132-.114.55-.275 1.25l-.3 1.223 1.2.017-.28-1.224c-.17-.712-.28-1.14-.3-1.26h-.04zM0 2.102v11.84L9.03 15.5V.5L0 2.102zm5.523 8.823L5.187 9.59l-1.663-.06-.32 1.257-1.06-.07 1.613-5.65 1.232-.07 1.76 5.997-1.23-.07z" />
        </g>
        <g id="mysql" style="transform: scale(0.5);">
            <path d="M 31.167969 8 C 30.699219 7.988281 30.289063 8.167969 30.078125 8.6875 C 29.71875 9.558594 30.613281 10.410156 30.933594 10.855469 C 31.15625 11.164063 31.445313 11.511719 31.605469 11.859375 C 31.710938 12.089844 31.726563 12.320313 31.816406 12.5625 C 32.039063 13.160156 32.394531 13.839844 32.679688 14.394531 C 32.824219 14.675781 32.984375 14.96875 33.167969 15.21875 C 33.28125 15.371094 33.472656 15.441406 33.503906 15.675781 C 33.316406 15.941406 33.304688 16.351563 33.199219 16.6875 C 32.722656 18.191406 32.902344 20.0625 33.59375 21.171875 C 33.808594 21.515625 34.3125 22.246094 35 21.96875 C 35.601563 21.722656 35.46875 20.960938 35.640625 20.285156 C 35.679688 20.136719 35.65625 20.023438 35.734375 19.921875 L 35.734375 19.953125 C 35.914063 20.320313 36.097656 20.6875 36.28125 21.050781 C 36.691406 21.707031 37.414063 22.390625 38.023438 22.855469 C 38.339844 23.09375 38.589844 23.507813 39 23.648438 L 39 23.617188 L 38.96875 23.617188 C 38.890625 23.492188 38.765625 23.441406 38.664063 23.34375 C 38.425781 23.109375 38.160156 22.816406 37.964844 22.546875 C 37.40625 21.792969 36.914063 20.964844 36.46875 20.105469 C 36.253906 19.695313 36.066406 19.242188 35.886719 18.824219 C 35.816406 18.660156 35.816406 18.417969 35.671875 18.332031 C 35.472656 18.640625 35.183594 18.886719 35.03125 19.25 C 34.789063 19.828125 34.753906 20.535156 34.664063 21.265625 C 34.609375 21.285156 34.632813 21.269531 34.605469 21.296875 C 34.179688 21.191406 34.027344 20.753906 33.871094 20.378906 C 33.472656 19.429688 33.394531 17.898438 33.75 16.808594 C 33.839844 16.523438 34.25 15.632813 34.085938 15.371094 C 34.007813 15.109375 33.742188 14.960938 33.597656 14.761719 C 33.414063 14.515625 33.234375 14.191406 33.109375 13.90625 C 32.78125 13.164063 32.472656 12.304688 32.125 11.554688 C 31.960938 11.195313 31.683594 10.835938 31.453125 10.515625 C 31.199219 10.164063 30.917969 9.90625 30.71875 9.476563 C 30.652344 9.328125 30.554688 9.085938 30.660156 8.929688 C 30.691406 8.824219 30.738281 8.78125 30.84375 8.746094 C 31.019531 8.609375 31.511719 8.789063 31.699219 8.867188 C 32.1875 9.070313 32.597656 9.265625 33.011719 9.539063 C 33.210938 9.671875 33.410156 9.925781 33.652344 10 L 33.925781 10 C 34.359375 10.097656 34.839844 10.027344 35.238281 10.152344 C 35.949219 10.367188 36.585938 10.703125 37.160156 11.066406 C 38.921875 12.175781 40.363281 13.757813 41.34375 15.644531 C 41.503906 15.949219 41.574219 16.242188 41.714844 16.5625 C 41.992188 17.210938 42.347656 17.882813 42.628906 18.515625 C 42.90625 19.152344 43.179688 19.789063 43.574219 20.316406 C 43.78125 20.59375 44.585938 20.746094 44.949219 20.898438 C 45.203125 21.007813 45.625 21.121094 45.863281 21.265625 C 46.328125 21.542969 46.773438 21.875 47.207031 22.183594 C 47.425781 22.335938 48.089844 22.667969 48.125 22.945313 C 47.050781 22.917969 46.230469 23.015625 45.53125 23.3125 C 45.332031 23.398438 45.011719 23.398438 44.980469 23.648438 C 45.085938 23.761719 45.105469 23.933594 45.191406 24.074219 C 45.359375 24.34375 45.640625 24.707031 45.894531 24.898438 C 46.171875 25.105469 46.453125 25.328125 46.75 25.511719 C 47.273438 25.828125 47.859375 26.011719 48.367188 26.332031 C 48.664063 26.523438 48.964844 26.761719 49.253906 26.972656 C 49.398438 27.082031 49.492188 27.246094 49.679688 27.3125 L 49.679688 27.28125 C 49.582031 27.15625 49.558594 26.984375 49.46875 26.855469 L 49.066406 26.453125 C 48.679688 25.941406 48.1875 25.488281 47.664063 25.113281 C 47.246094 24.8125 46.3125 24.40625 46.140625 23.921875 L 46.109375 23.890625 C 46.402344 23.859375 46.75 23.75 47.023438 23.675781 C 47.484375 23.554688 47.890625 23.585938 48.363281 23.464844 C 48.578125 23.402344 48.792969 23.339844 49.007813 23.28125 L 49.007813 23.15625 C 48.769531 22.914063 48.597656 22.585938 48.335938 22.363281 C 47.652344 21.78125 46.90625 21.199219 46.136719 20.714844 C 45.710938 20.445313 45.183594 20.269531 44.734375 20.042969 C 44.582031 19.964844 44.316406 19.925781 44.214844 19.796875 C 43.976563 19.496094 43.847656 19.113281 43.664063 18.761719 C 43.28125 18.023438 42.90625 17.21875 42.566406 16.441406 C 42.335938 15.914063 42.183594 15.390625 41.894531 14.914063 C 40.507813 12.636719 39.015625 11.257813 36.703125 9.90625 C 36.210938 9.617188 35.621094 9.507813 34.996094 9.359375 C 34.65625 9.335938 34.324219 9.316406 33.984375 9.296875 C 33.78125 9.210938 33.566406 8.960938 33.375 8.835938 C 32.894531 8.535156 31.949219 8.011719 31.167969 8 Z M 34.476563 11.3125 C 34.253906 11.308594 34.09375 11.339844 33.925781 11.375 L 33.925781 11.40625 L 33.957031 11.40625 C 34.0625 11.625 34.253906 11.765625 34.386719 11.953125 C 34.488281 12.167969 34.585938 12.382813 34.6875 12.597656 L 34.71875 12.566406 C 34.90625 12.433594 34.996094 12.21875 34.996094 11.894531 C 34.917969 11.816406 34.90625 11.714844 34.84375 11.621094 C 34.753906 11.492188 34.585938 11.421875 34.476563 11.3125 Z M 1.867188 23.996094 C 1.566406 24.007813 1.238281 24.066406 0.882813 24.179688 C 0.289063 24.359375 -0.00390625 24.714844 -0.00390625 25.4375 L -0.00390625 33 L 2 33 L 2 25.621094 L 4.777344 31.929688 C 5.121094 32.714844 5.589844 32.996094 6.507813 32.996094 C 7.429688 32.996094 7.878906 32.714844 8.222656 31.929688 L 11 25.78125 L 11 33 L 13 33 L 13 25.4375 C 13 24.714844 12.710938 24.359375 12.113281 24.179688 C 10.691406 23.730469 9.734375 24.117188 9.304688 25.089844 L 6.453125 31.503906 L 3.695313 25.089844 C 3.382813 24.359375 2.757813 23.960938 1.867188 23.996094 Z M 26.246094 24 C 25.457031 24 23 24.09375 23 26 L 23 27.234375 C 23 28.109375 23.769531 28.824219 25.4375 29 C 25.625 29.011719 25.8125 29.027344 26 29.027344 C 26 29.027344 27.945313 28.988281 28 29 C 29.125 29 29 29.875 29 30 L 29 31 C 29 31.136719 28.96875 32 27.988281 32 L 23 32 L 23 33 L 28.007813 33 C 28.664063 33 29.300781 32.863281 29.808594 32.625 C 30.652344 32.238281 31 31.714844 31 31.027344 L 31 29.597656 C 31 28.0625 29.09375 28 28 28 L 26 28 C 25.214844 28 25.09375 27.523438 25 27 L 25 26 C 25.09375 25.601563 25.269531 25.0625 25.964844 25 L 31 25 L 31 24 Z M 33.980469 24 C 32.503906 24.203125 31.984375 24.9375 31.984375 26 L 31.984375 31 C 31.984375 31.972656 32.527344 32.558594 33.644531 32.863281 C 34.019531 32.96875 34.359375 33.011719 34.679688 33.011719 L 36.90625 33 L 38.214844 33 L 39.328125 34 L 41.578125 34 L 40.03125 32.605469 C 40.757813 32.304688 40.984375 31.84375 40.984375 30.980469 L 40.984375 26 C 40.984375 24.9375 40.292969 24.203125 38.816406 24 Z M 42 24 L 42 30.957031 C 42 32.164063 42.683594 32.84375 44.492188 32.980469 C 44.660156 32.988281 44.832031 33 45 33 L 50 33 L 50 32 L 45.378906 32 C 44.347656 32 44 31.566406 44 30.949219 L 44 24 Z M 35.171875 25 L 37.746094 25 C 38.425781 25 38.882813 25.546875 38.984375 26 C 38.984375 26 39 30.65625 39 31 C 39 31.34375 38.808594 31.5 38.808594 31.5 L 38.265625 31 L 36 31 L 37.113281 32 L 35.171875 32 C 34.476563 32 34.085938 31.484375 33.984375 31 L 33.984375 26.101563 C 33.984375 25.570313 34.390625 25 35.171875 25 Z M 14 27 C 14.039063 27.039063 14 31.261719 14 31.34375 C 14.015625 32.21875 15.125 32.984375 16.863281 33 L 20 33 L 20 33.066406 C 20 33.253906 20.136719 33.878906 19 34 C 18.988281 34 14.011719 34 14 34 L 14 35 L 19.214844 35 C 20.097656 34.972656 22.011719 34.773438 22 33.242188 C 22 33.214844 22.007813 27 22 27 L 20 27 L 20 32 C 19.96875 32 17.523438 32.007813 17.03125 32 C 16.066406 31.984375 15.984375 31.433594 16 31.222656 L 16 27 Z "></path>
        </g>
        <g id="postgresql" style="transform: scale(0.5);">
            <path d="M 35.199219 2.101563 C 33.699219 2.101563 32.398438 2.398438 31.199219 2.699219 C 33.300781 3.597656 34.601563 4.699219 35.300781 5.199219 C 36.902344 6.597656 37.800781 8 39.402344 10.300781 C 39.699219 10.800781 40.199219 11.5 40.5 12.597656 C 40.800781 13.597656 40.800781 14.398438 40.800781 15.199219 C 40.800781 16.300781 40.699219 17.199219 40.597656 18.097656 C 40.5 18.800781 40.5 19.101563 40.402344 19.300781 C 40.402344 19.402344 40.402344 19.5 40.300781 19.699219 C 40.300781 20.199219 40.300781 20.402344 40.402344 20.800781 C 40.402344 21.199219 40.5 21.601563 40.5 22.300781 C 40.601563 23.601563 40.601563 24.5 40.402344 25.597656 L 40.402344 26 C 40.199219 26.898438 40 27.800781 39.5 28.597656 C 39.601563 28.800781 39.699219 28.898438 39.800781 29.097656 C 40.300781 28.398438 40.699219 27.699219 41.097656 26.902344 C 42.300781 24.699219 43 22.800781 43.5 21.402344 C 44.398438 18.800781 44.898438 16.898438 45.199219 15.5 C 45.898438 12.5 46 11.101563 45.699219 9.5 C 45.699219 9 45.5 8.097656 45 7.199219 C 43.898438 5.199219 42.199219 4.300781 41 3.699219 C 40.199219 3.300781 38.097656 2.199219 35.199219 2.101563 Z M 13.535156 2.542969 C 12.382813 2.519531 10.976563 2.648438 9.398438 3.398438 C 8.898438 3.601563 7.398438 4.300781 6.199219 5.898438 C 5.398438 6.898438 4.800781 8.398438 4.5 10.097656 C 4.199219 11.597656 4.097656 13.402344 4.699219 16.800781 C 5.097656 19.199219 5.5 20.800781 6.300781 24.097656 C 6.402344 24.5 7 26.300781 8.300781 30.300781 L 8.398438 30.5 C 8.601563 31.199219 9.199219 32.699219 10.5 34.199219 C 11.398438 35.199219 12.199219 35.800781 12.902344 35.800781 L 13.097656 35.800781 C 14.398438 35.800781 15.300781 34.800781 16.097656 34 C 16.097656 33.898438 18 31.601563 18.699219 30.800781 C 18.597656 30.699219 18.402344 30.699219 18.300781 30.597656 C 17.101563 29.898438 16.199219 28.800781 15.5 27.597656 C 14.300781 25.398438 14.398438 23.199219 14.597656 22.097656 L 14.699219 20.402344 C 14.300781 17.699219 14.402344 15.101563 14.902344 12.5 C 15.300781 10.300781 15.800781 8.101563 17.597656 5.800781 C 18.199219 5 18.898438 4.300781 19.597656 3.800781 C 18 3.101563 16.300781 2.699219 14.597656 2.601563 C 14.273438 2.574219 13.917969 2.550781 13.535156 2.542969 Z M 26.097656 3.398438 C 25.597656 3.398438 25.097656 3.398438 24.597656 3.5 C 22.597656 3.898438 20.699219 5 19.199219 6.898438 C 17.699219 8.800781 17.300781 10.597656 16.902344 12.699219 C 16.699219 13.5 16.699219 14.199219 16.597656 15 C 17.199219 14.5 18 13.898438 19.199219 13.597656 C 19.898438 13.398438 21.699219 12.800781 23.199219 13.699219 C 23.699219 14 24.398438 14.601563 25.097656 16.300781 C 26.597656 20.5 25.101563 24.800781 24.902344 25.199219 C 24.800781 25.597656 24.601563 25.898438 24.5 26.097656 C 24.300781 26.597656 24.101563 27 23.902344 27.800781 C 23.800781 28.5 23.699219 29.101563 23.699219 29.800781 C 24 29.800781 24.300781 29.898438 24.597656 30.097656 C 25.097656 30.597656 25.199219 31.300781 25.300781 31.597656 C 25.5 33.199219 25.5 35.199219 25.5 37.199219 C 25.5 38.800781 25.5 40.300781 25.597656 41.300781 C 25.800781 43.601563 26.5 45.199219 27.5 46 C 28.199219 46.601563 29.097656 46.597656 29.597656 46.699219 L 29.800781 46.699219 C 31.300781 46.699219 33.699219 45.699219 34.597656 44.300781 C 35.097656 43.5 35.300781 42.800781 35.5 41.800781 C 35.601563 41.199219 35.597656 40.902344 35.699219 40.300781 C 35.699219 40 35.800781 39.5 35.800781 38.902344 C 35.800781 38.402344 35.898438 37.800781 36 37.097656 C 36.101563 35.398438 36.398438 33.402344 36.5 32.300781 C 36.601563 31 37.199219 29.898438 37.699219 29.199219 C 37 29.097656 36.300781 28.5 35.902344 27.5 C 35.300781 26.398438 35.199219 26.097656 35.097656 25.597656 C 35 25.199219 34.800781 24.699219 34.097656 23.199219 C 32.597656 19.800781 32.402344 18.800781 32.402344 18 C 32.300781 16.898438 32.199219 15.402344 33.402344 14.402344 C 35.199219 12.800781 37.5 12.902344 38.699219 13.300781 L 38.699219 13.097656 C 38.5 12.300781 38.101563 11.699219 37.800781 11.300781 C 36.300781 9 35.5 7.800781 34.097656 6.601563 C 33.5 6.101563 32 4.898438 29.800781 4.101563 C 28.800781 3.800781 27.597656 3.398438 26.097656 3.398438 Z M 37.152344 15.125 C 36.425781 15.074219 35.5 15.199219 34.699219 15.902344 C 34.300781 16.300781 34.300781 17.101563 34.402344 17.800781 C 34.402344 18.300781 34.5 19 36 22.402344 C 36.699219 24 36.898438 24.5 37 24.902344 C 37.101563 25.300781 37.199219 25.5 37.800781 26.597656 C 37.902344 26.800781 38 27 38.199219 27.199219 C 38.398438 26.898438 38.5 26.398438 38.597656 25.597656 L 38.699219 25.300781 C 38.898438 24.402344 38.800781 23.699219 38.800781 22.5 C 38.800781 21.898438 38.699219 21.5 38.699219 21.199219 C 38.597656 20.699219 38.597656 20.300781 38.597656 19.699219 C 38.398438 19.398438 38.398438 19.300781 38.5 19.097656 C 38.5 18.898438 38.597656 18.601563 38.699219 18 C 38.800781 17.199219 38.902344 16.5 38.902344 15.699219 C 38.699219 15.597656 38.601563 15.5 38.402344 15.402344 C 38.402344 15.402344 37.875 15.175781 37.152344 15.125 Z M 21.515625 15.519531 C 20.878906 15.445313 20.148438 15.652344 19.699219 15.800781 C 18.597656 16.101563 17.902344 16.800781 17.402344 17.199219 C 17.101563 17.5 16.800781 17.800781 16.5 18.199219 C 16.5 18.898438 16.597656 19.601563 16.699219 20.300781 L 16.699219 20.402344 L 16.5 22.402344 C 16.300781 23.300781 16.199219 25 17.199219 26.699219 C 17.699219 27.699219 18.402344 28.5 19.300781 29 C 19.902344 29.398438 20.699219 29.699219 21.597656 29.902344 C 21.597656 29.199219 21.699219 28.398438 21.800781 27.699219 C 22 26.699219 22.199219 26.199219 22.5 25.597656 C 22.601563 25.300781 22.699219 25.101563 22.902344 24.800781 C 23 24.5 24.398438 20.699219 23.097656 17.199219 C 22.800781 16.398438 22.5 15.898438 22.097656 15.699219 C 21.925781 15.597656 21.722656 15.542969 21.515625 15.519531 Z M 36.1875 16.089844 C 36.449219 16.074219 36.699219 16.097656 36.800781 16.199219 C 37.101563 16.398438 36.699219 16.898438 36.597656 17 C 36.5 17.101563 36.300781 17.300781 36 17.402344 C 35.601563 17.5 35.300781 17.199219 35.199219 17.199219 C 35.097656 17.097656 34.800781 16.800781 34.902344 16.5 C 35 16.300781 35.101563 16.300781 35.5 16.199219 C 35.648438 16.148438 35.925781 16.101563 36.1875 16.089844 Z M 21.15625 16.917969 C 21.492188 16.894531 21.773438 17.023438 22 17.097656 C 22.300781 17.199219 22.597656 17.300781 22.597656 17.5 C 22.699219 17.800781 22.402344 18 22.300781 18.097656 C 22 18.398438 21.5 18.402344 21.5 18.402344 C 21 18.402344 20.699219 18.101563 20.5 17.800781 C 20.398438 17.699219 20.300781 17.5 20.402344 17.300781 C 20.5 17.101563 20.699219 17 20.800781 17 C 20.925781 16.949219 21.042969 16.925781 21.15625 16.917969 Z M 39.5 30 C 39 30.699219 38.300781 31.601563 38.199219 32.800781 C 38.199219 33 38.199219 33.101563 38.097656 33.300781 C 38.898438 33.5 39.601563 33.5 40.300781 33.402344 C 41.902344 33.199219 43 32.398438 43.199219 32.199219 C 43.898438 31.699219 44.800781 30.699219 44.597656 30.300781 C 44.5 30.101563 44.199219 30.199219 42.597656 30.300781 C 42.199219 30.300781 41 30.601563 40.199219 30.402344 L 40 30.402344 C 39.800781 30.300781 39.601563 30.199219 39.5 30 Z M 22.097656 32 C 21.898438 32.300781 21.601563 32.5 21.402344 32.699219 C 20.601563 33.199219 19.597656 33.601563 18.597656 33.800781 C 17.699219 34.101563 17.199219 34.101563 17.199219 34.402344 C 17.097656 34.800781 18.097656 35.300781 18.597656 35.5 C 20.300781 36.199219 22 35.800781 22.300781 35.699219 C 22.5 35.597656 23 35.398438 23.5 35.097656 C 23.5 34 23.402344 33 23.300781 32.199219 L 23.300781 32.097656 L 23.199219 32.097656 C 22.898438 32.097656 22.5 32.101563 22.097656 32 Z "></path>
        </g>
        <g id="uml">
            <path d="M1623 4938 l-293 -252 263 -134 c144 -73 450 -228 679 -343 513 -258 548 -285 536 -408 -7 -67 -55 -132 -146 -198 -95 -68 -181 -97 -292 -97 -53 0 -107 7 -145 18 -33 10 -367 173 -743 362 l-682 345 -295 -252 c-162 -139 -295 -256 -295 -259 0 -3 305 -159 678 -347 710 -358 794 -395 1012 -441 295 -64 653 -20 915 110 215 108 539 358 677 523 159 190 208 346 163 520 -36 138 -150 278 -309 383 -82 53 -1397 722 -1419 721 -6 0 -144 -113 -304 -251z"/>
            <path d="M2642 2882 l-393 -207 0 -1209 c1 -665 2 -1210 4 -1212 1 -1 437 226 970 504 l967 506 0 328 c0 222 -3 328 -10 328 -6 0 -256 -128 -556 -285 -299 -157 -549 -285 -554 -285 -7 0 -10 305 -10 870 0 690 -3 870 -12 870 -7 -1 -190 -94 -406 -208z"/>
            <path d="M3970 2150 c0 -72 3 -90 15 -90 10 0 15 15 17 58 l3 57 19 -58 c25 -73 44 -72 71 3 l20 55 3 -57 c2 -43 7 -58 17 -58 12 0 15 18 15 91 0 87 -1 90 -22 87 -17 -2 -26 -18 -44 -68 -24 -72 -25 -72 -55 28 -10 34 -17 42 -36 42 -22 0 -23 -2 -23 -90z"/>
        </g>
        <g id="visio" style="transform: scale(0.5);">
            <path d="M 28.8125 0 L 0.8125 5.34375 C 0.335938 5.4375 -0.0078125 5.859375 0 6.34375 L 0 43.65625 C -0.0078125 44.140625 0.335938 44.5625 0.8125 44.65625 L 28.8125 50 L 29 50 C 29.550781 50 30 49.550781 30 49 L 30 1 C 30 0.703125 29.855469 0.410156 29.625 0.21875 C 29.398438 0.0195313 29.109375 -0.0546875 28.8125 0 Z M 32 6 L 32 14 L 34.59375 14 L 39 9.59375 L 44.40625 15 L 40 19.40625 L 40 34 L 36 34 L 36 37 C 36 37.550781 35.550781 38 35 38 L 32 38 L 32 44 L 47 44 C 48.105469 44 49 43.105469 49 42 L 49 8 C 49 6.894531 48.105469 6 47 6 Z M 39 12.40625 L 36.40625 15 L 39 17.59375 L 41.59375 15 Z M 21.9375 14.59375 L 16.21875 35.21875 L 12.21875 34.875 L 7.375 15.9375 L 10.71875 15.625 L 14.15625 30.375 L 14.375 30.375 L 18 14.9375 Z M 32 16 L 32 28 L 35 28 C 35.550781 28 36 28.449219 36 29 L 36 32 L 38 32 L 38 19.40625 L 34.59375 16 Z M 32 30 L 32 36 L 34 36 L 34 30 Z "></path>
        </g>
        <g id="photoshop" style="transform: scale(0.75);">
            <path  d="M 5 5 L 5 27 L 27 27 L 27 5 Z M 7 7 L 25 7 L 25 25 L 7 25 Z M 10 11 L 10 21 L 12 21 L 12 17 L 13 17 C 14.644531 17 16 15.644531 16 14 C 16 12.355469 14.644531 11 13 11 Z M 12 13 L 13 13 C 13.566406 13 14 13.433594 14 14 C 14 14.566406 13.566406 15 13 15 L 12 15 Z M 19.5 13 C 18.132813 13 17 14.132813 17 15.5 C 17 16.867188 18.132813 18 19.5 18 C 19.785156 18 20 18.214844 20 18.5 C 20 18.863281 19.9375 19 19.5 19 C 19.121094 19 19.066406 18.914063 19.0625 18.90625 C 19.058594 18.898438 19 18.867188 19 18.625 L 17 18.625 C 17 19.191406 17.15625 19.832031 17.625 20.3125 C 18.09375 20.792969 18.773438 21 19.5 21 C 20.910156 21 22 19.792969 22 18.5 C 22 17.132813 20.867188 16 19.5 16 C 19.214844 16 19 15.785156 19 15.5 C 19 15.214844 19.214844 15 19.5 15 C 19.769531 15 19.84375 15.058594 19.90625 15.125 C 19.96875 15.191406 20 15.320313 20 15.40625 L 22 15.40625 C 22 14.839844 21.804688 14.253906 21.375 13.78125 C 20.945313 13.308594 20.257813 13 19.5 13 Z "></path>
        </g>
        <g id="swagger" style="transform: scale(0.0075);">
            <path d="M1390 3074 c-111 -20 -297 -82 -397 -132 -276 -139 -516 -379 -655
                -655 -54 -109 -113 -291 -133 -415 -14 -81 -16 -143 -12 -285 4 -160 8 -196
                34 -297 17 -63 45 -151 62 -195 171 -427 541 -754 984 -869 130 -34 228 -46
                377 -46 799 0 1450 651 1450 1450 0 303 -77 562 -241 810 -204 308 -498 516
                -868 612 -107 28 -131 31 -316 34 -148 2 -222 -1 -285 -12z m-130 -779 l0 -75
                -39 0 c-52 0 -87 -14 -102 -41 -6 -13 -15 -96 -19 -188 -10 -199 -23 -245 -89
                -311 l-46 -45 42 -38 c67 -61 84 -119 93 -319 6 -124 12 -174 23 -192 16 -23
                54 -36 108 -36 l29 0 0 -75 0 -75 -63 0 c-131 0 -214 49 -243 145 -10 31 -18
                117 -23 225 -8 188 -18 224 -66 256 -13 9 -42 18 -65 21 l-40 6 0 83 0 83 45
                7 c95 14 125 75 125 258 1 204 28 305 96 347 49 30 79 37 162 38 l72 1 0 -75z
                m943 64 c58 -16 114 -72 132 -132 9 -29 17 -115 21 -206 3 -86 10 -174 16
                -195 13 -53 53 -91 106 -99 l42 -7 0 -84 0 -83 -39 -7 c-88 -14 -121 -76 -121
                -228 0 -121 -18 -264 -36 -301 -41 -81 -111 -117 -231 -117 l-63 0 0 75 0 75
                34 0 c53 0 96 20 108 49 5 14 13 98 18 186 11 207 24 250 98 317 l39 35 -39
                32 c-70 59 -97 145 -99 309 -1 125 -11 199 -32 219 -9 10 -39 18 -71 21 l-56
                4 0 74 0 74 68 0 c37 0 84 -5 105 -11z m-840 -659 c50 -55 25 -139 -46 -158
                -92 -25 -164 79 -106 152 43 54 105 57 152 6z m322 26 c40 -17 55 -42 55 -94
                0 -97 -130 -132 -180 -49 -11 18 -20 40 -20 50 0 30 29 76 58 91 34 19 45 19
                87 2z m388 -26 c60 -66 13 -162 -80 -162 -98 0 -128 142 -39 187 42 21 85 12
                119 -25z"/>
        </g>
        <g id="gulp">
            <path d="M15.156 19.432l.636-1.084s-1.444.591-3.86.591c-2.418 0-3.84-.568-3.84-.568l.711 1.183.252 3.729c0 .403 1.314.718 2.936.718 1.623 0 2.938-.314 2.938-.718l.229-3.835v-.016zm.615-7.046c-.769.046-1.153.903-1.539 1.805-.143.33-.63 1.737-.948 1.563-.318-.173.413-1.329.619-2.017-.237.174-1.105.849-1.329.215-.358.314-1.129.48-1.042-.329-.191.345-.621.823-1.139.614-.673-.255.395-2.411.66-2.307.266.121-.053.6-.136.794-.186.419-.398.958-.255 1.063.24.194.904-.703.919-.719.124-.165.479-1.229.763-1.107.285.134-.711 1.541-.34 1.826.076.06.383-.03.569-.239.12-.12.078-.42.479-1.378.404-.959.764-2.156 1.039-2.066s.049.703-.051.943c-.464 1.078-1.268 2.844-.89 2.71.374-.135.569-.135.943-.569.374-.434.345-1.152.599-1.137.24.014.21.254.15.418.24-.27 1.152-.868 1.363-.284.254.688-1.304 1.692-.914 1.632.375-.045.988-.434 1.258-.793l.719-6.5s-.734.6-5.361.6-5.284-.584-5.284-.584l.613 5.93c.33-.928 1.108-2.814 2.322-2.74.554.03 1.303 1.109.658 1.139-.27.015-.3-.539-.614-.614-.239-.046-.554.135-.763.345-.404.404-1.304 2.006-1.184 2.801.15 1.018 1.407-.346 1.617-.75.149-.283.254-1.138.568-1.048.33.09-.029.974-.27 1.737-.27.869-.404 1.781-.732 1.676-.33-.104.209-1.227.178-1.422-.313.299-.883 1.02-1.631.659l.374 3.699s1.019.793 4.073.793 4.118-.793 4.118-.793l.479-4.283c-.389.39-1.617 1.063-1.692.3-.059-.614 1.333-1.498.974-1.514l.06-.069zM17.346.669l-2.659 2.8-.486 1.901c1.881.12 3.189.386 3.189.694 0 .419-2.414.757-5.391.757s-5.39-.343-5.39-.763c0-.419 2.414-.764 5.391-.764.423 0 .844 0 1.264.016l.561-2.276L16.65.039c.068-.09.28-.015.474.15.194.149.299.344.239.434v.03l-.017.016zm-3.834 5.795s-.523 0-.61-.08c-.022-.025-.036-.058-.036-.09 0-.058.039-.091.09-.11l.044.075c-.021.006-.029.015-.033.023 0 .041.314.069.555.066.239-.003.531-.023.533-.064 0-.012-.023-.023-.061-.033l.045-.072c.063.02.117.058.117.121 0 .11-.141.128-.23.141-.107.015-.412.023-.412.023h-.002z"/>
        </g>
    </defs>
</svg>